<?xml version="1.0" encoding="utf-8"?>
<!-- Generator: Adobe Illustrator 23.0.2, SVG Export Plug-In . SVG Version: 6.00 Build 0)  -->
<svg version="1.1" id="Layer_1" xmlns="http://www.w3.org/2000/svg" xmlns:xlink="http://www.w3.org/1999/xlink" x="0px" y="0px"
	 viewBox="0 0 322 87.6" style="enable-background:new 0 0 322 87.6;" xml:space="preserve">
<style type="text/css">
	.st0{fill:#323248;}
	.st1{clip-path:url(#SVGID_2_);fill:#323248;}
	.st2{clip-path:url(#SVGID_4_);fill-rule:evenodd;clip-rule:evenodd;fill:#0B9446;}
	.st3{display:none;fill:#00B74F;}
</style>
<g>
	<path class="st0" d="M122.9,63.8c11.9,0,22.5-5.1,22.5-15.1c0-9.3-9.8-12-16.8-14.5c-6.1-2.1-10.8-4.5-10.8-10.4
		c0-5.3,4-9.7,10.8-9.7c6.6,0,12.4,4.2,13.8,12.2c0.1,0.8,0.4,1,1.1,1c2.6,0,3.6-6.3,2-11.9c-3.7-2.3-8.5-3.7-14.3-3.7
		c-11.3,0-20.5,5.6-20.5,15c0,7.6,6.1,11.5,14.3,14.3c6.6,2.2,12.7,3.7,12.7,10.6c0,5.5-4.3,9.5-11.4,9.6
		c-7.8,0.1-14.1-4.4-15.3-12.3c-0.1-0.9-0.5-1-1.2-1c-2.6,0-3.6,6.3-2,11.9C111.6,62.2,116.1,63.8,122.9,63.8L122.9,63.8z"/>
	<path class="st0" d="M178.7,54.4l-7.8-9.4c-0.8-0.9-0.4-1.4,0.7-1.9c10-3.1,14.1-7.3,14.1-11.3c0-3.4-2.8-6-6.6-6
		c-7.2,0-15.1,8.6-15,5.2l2.9-20.9c-3.1,0.7-7.1,1.6-12.4,1.6l-0.3,1.5c3.9,0,5.7,1.2,5,6.4L153.2,63l6.3-0.1l3.7-26.4l-0.7,5.2
		c0.8-5.6,5.6-11.7,11.8-11.7c2.9,0,4.7,1.4,4.7,3.9c0,4.6-6.1,7.6-16.3,9.9l16,19.2h8.6l0.3-1.5C184.6,61.5,182,58.2,178.7,54.4
		L178.7,54.4z"/>
	<path class="st0" d="M202.3,47.5l5-0.8c13.5-2.2,18.1-5.7,18.1-11.2c0-5.3-4.3-9.7-12.8-9.7c-13.6,0-20.4,12-20.4,21.6
		c0,9.7,6.9,16.1,16.3,16.1c7.2,0,11.9-3.9,14.3-6.6l-1.2-1.3c-2.6,2.7-6.5,3.8-10,3.8c-5.6,0-9.5-3.2-11.3-8.1
		C199.7,49.1,200.2,47.8,202.3,47.5L202.3,47.5z M211.6,27.5c4.9,0,7.1,3.1,7.1,7.6c0,3.8-1.4,8.5-12.9,9.8l-3.2,0.5
		c-2,0.3-3.5-0.2-3.7-2.5C199.4,34.2,204.5,27.5,211.6,27.5L211.6,27.5z"/>
	<path class="st0" d="M228.4,79.1c3.1-0.7,7.1-1.6,12.4-1.6l0.4-1.5c-3.9,0-5.8-1.2-5.1-6.4l0.7-4.8c0.9-6.4,1.7-1.3,9.2-1.3
		c11.9,0,21.5-12.1,21.5-23.7c0-8.8-5.4-14-12.7-14c-10.4,0-13.4,10.3-13.4,5c0-3.3-2.1-4.7-5.1-4.7c-1.9,0-4.2,0.6-6.1,2.4
		l-0.3,1.6c2.6-1.6,5.4-0.4,5,2.7L228.4,79.1z M246.2,61.7c-5.7,0-8.6-4.1-7.5-11.2l1.3-9.3c1.3-8.6,7.3-11.8,11.5-11.8
		c5.4,0,9.1,5.2,9.1,12.4C260.7,49.5,256.2,61.7,246.2,61.7L246.2,61.7z"/>
	<path class="st0" d="M283.3,63.5c10.1,0,14.3-5.6,14.3-10.3c0-9.9-16.9-12.5-16.9-20.5c0-2.6,1.4-5.3,5.8-5.3c5.1,0,6.6,4.4,6.6,8
		c0,1.5,1.1,2.3,2.6,2.3c1.9,0,3.3-1.2,3.3-3.2c0-2.8-2.2-8.7-12-8.7c-8.6,0-12.4,4.3-12.4,8.9c0,9.7,16.6,13,16.6,20.1
		c0,3.2-2.1,7-7.6,7c-6,0-7.1-4.5-7.1-8.4c0-1.9-0.8-2.7-2.4-2.7c-2.7,0-3.6,2.1-3.6,4.3C270.6,59.4,274.6,63.5,283.3,63.5
		L283.3,63.5z"/>
	<g>
		<g>
			<defs>
				<rect id="SVGID_1_" x="2.9" y="3.3" width="315" height="82"/>
			</defs>
			<clipPath id="SVGID_2_">
				<use xlink:href="#SVGID_1_"  style="overflow:visible;"/>
			</clipPath>
			<path class="st1" d="M313.5,17.2c2.4,0,4.4-1.9,4.4-4.1s-2-4-4.4-4c-2.3,0-4.4,1.9-4.4,4C309.1,15.3,311.3,17.2,313.5,17.2
				L313.5,17.2z M310,63.5c1.8,0,4.2-0.6,6.1-2.4l0.4-1.6c-2.7,1.6-5.5,0.4-5-2.8l3.9-24.8c0.6-4.1-1.9-5.7-5-5.7
				c-1.8,0-4.1,0.6-6.1,2.4l-0.3,1.6c2.6-1.6,5.5-0.4,5,2.7l-3.9,24.8C304.5,61.8,307,63.5,310,63.5L310,63.5z"/>
		</g>
		<g>
			<defs>
				<rect id="SVGID_3_" x="2.9" y="3.3" width="315" height="82"/>
			</defs>
			<clipPath id="SVGID_4_">
				<use xlink:href="#SVGID_3_"  style="overflow:visible;"/>
			</clipPath>
			<path class="st2" d="M40.9,84.9L40.9,84.9c9.3,0,17.1-10.1,20.3-24.9c1.1-5.2,1.7-10.6,1.7-15.9c0-1,0-2.1-0.1-3.1
				c0-1-0.1-1.9-0.2-2.9c1.2,1.1,2.4,2.1,3.4,3.2c6.5,6.7,9.5,13.8,7.1,18.7c-1.6,3.2-5.2,5.1-10.1,5.7c-0.5,1.7-1.2,3.4-1.9,5.1
				c7.8-0.5,13.7-3.4,16.3-8.7c3.9-8-1.1-18.9-12-28.1c-1.2-1-2.4-2-3.7-2.9c-1.8-1.4-3.8-2.6-5.8-3.9c0.6,2.2,1,4.4,1.3,6.7
				c0.5,3.4,0.7,6.8,0.7,10.2c0,1,0,2-0.1,3.1v0c-0.2,6.2-1.4,12.4-3.4,18.2c-0.5,1.5-1.2,3-1.9,4.4C49.6,76.1,45.4,80,40.9,80
				c-2.6,0-5.2-1.4-7.5-3.9c-1.5,0.4-3,0.8-4.5,1.1c-0.3,0.1-0.6,0.1-0.9,0.2C31.7,82.3,36.1,84.9,40.9,84.9L40.9,84.9z M40.9,3.3
				C32,3.3,24.5,12.6,21,26.5c-0.4,1.5-0.7,3-1,4.6c-0.4,2.2-0.7,4.5-0.9,6.9c1.7-1.5,3.5-2.9,5.4-4.1c2.8-1.9,5.8-3.6,8.8-5.1
				c0.9-0.5,1.8-0.9,2.8-1.3h0c5.7-2.6,11.7-4.3,17.8-5c1.6-0.2,3.2-0.3,4.8-0.3c7,0,12.4,2,14.3,6.1c1.1,2.3,1.1,5.2-0.2,8.5
				c1.1,1.2,2.1,2.4,2.9,3.5c0.2,0.2,0.4,0.5,0.5,0.7c2.8-5.5,3.2-10.6,1.1-14.9c-4.1-8.3-16.6-10.8-31.3-7.2
				c-5.2,1.3-10.2,3.1-15,5.5c-0.9,0.5-1.9,0.9-2.8,1.4c-0.9,0.5-1.7,0.9-2.5,1.4c0.4-1.6,0.9-3.1,1.4-4.5
				C30.5,14,35.4,8.2,40.9,8.2c3.5,0,6.9,2.4,9.6,6.5c1.8-0.3,3.6-0.5,5.4-0.6C52,7.3,46.8,3.3,40.9,3.3L40.9,3.3z M40.9,62.5
				c-2.6-0.9-5.1-2-7.5-3.2c-8.9-4.4-16.3-10.2-21-16.4c-4.2-5.6-5.6-11-3.8-14.8c1.6-3.2,5.2-5.1,10.1-5.8c0.5-1.8,1.2-3.5,1.8-5.1
				C12.8,17.8,6.9,20.7,4.3,26C1.5,31.5,3,38.6,8.5,45.9c5.1,6.8,13.2,13.1,22.7,17.8c0.7,0.3,1.4,0.7,2.1,1
				c-4.1,1-8.3,1.4-12.5,1.2c-3.4-0.2-7.2-0.9-9.9-3.2C10,62,9.2,61,8.7,59.9c-1.1-2.3-1.1-5.3,0.2-8.5c-1.1-1.2-2.1-2.3-2.9-3.5
				c-0.2-0.2-0.4-0.5-0.5-0.7C2.6,52.6,2.2,57.8,4.3,62c3.6,7.2,12.6,9,19.9,8.8c5.7-0.2,11.3-1.3,16.7-3.1c2.6-0.8,5.1-1.8,7.6-3
				C45.9,64.2,43.4,63.4,40.9,62.5L40.9,62.5z M40.9,46.5c0.1,0,0.2,0,0.2,0c0.1,0,0.2,0,0.2,0s0.2,0,0.2-0.1s0.2,0,0.2-0.1
				c0.1,0,0.1-0.1,0.2-0.1c0.1,0,0.1-0.1,0.2-0.1c0.1,0,0.1-0.1,0.2-0.2c0.1,0,0.1-0.1,0.2-0.2s0.1-0.1,0.2-0.2s0.1-0.1,0.1-0.2
				c0-0.1,0.1-0.1,0.1-0.2c0-0.1,0.1-0.1,0.1-0.2c0-0.1,0-0.2,0.1-0.2c0-0.1,0-0.2,0.1-0.2s0-0.2,0-0.2c0-0.1,0-0.2,0-0.2
				s0-0.2,0-0.2s0-0.2,0-0.2s0-0.2-0.1-0.2c0-0.1,0-0.2-0.1-0.2c0-0.1-0.1-0.1-0.1-0.2c0-0.1-0.1-0.1-0.1-0.2c0-0.1-0.1-0.1-0.1-0.2
				c0-0.1-0.1-0.1-0.2-0.2c-0.1-0.1-0.1-0.1-0.2-0.2s-0.1-0.1-0.2-0.1c-0.1,0-0.1-0.1-0.2-0.1c-0.1,0-0.1-0.1-0.2-0.1
				c-0.1,0-0.2-0.1-0.2-0.1c-0.1,0-0.2,0-0.2-0.1c-0.1,0-0.2,0-0.2,0c-0.1,0-0.2,0-0.2,0s-0.2,0-0.2,0s-0.2,0-0.2,0s-0.2,0-0.2,0.1
				s-0.2,0-0.2,0.1c-0.1,0-0.1,0.1-0.2,0.1c-0.1,0-0.1,0.1-0.2,0.1c-0.1,0-0.1,0.1-0.2,0.1c-0.1,0-0.1,0.1-0.2,0.2s-0.1,0.1-0.2,0.2
				c0,0.1-0.1,0.1-0.1,0.2c0,0.1-0.1,0.1-0.1,0.2c0,0.1-0.1,0.1-0.1,0.2c0,0.1-0.1,0.2-0.1,0.2c0,0.1,0,0.2-0.1,0.2
				c0,0.1,0,0.2,0,0.2c0,0.1,0,0.2,0,0.2s0,0.2,0,0.2s0,0.2,0,0.2s0,0.2,0.1,0.2s0,0.2,0.1,0.2c0,0.1,0.1,0.2,0.1,0.2
				c0,0.1,0.1,0.1,0.1,0.2c0,0.1,0.1,0.1,0.1,0.2c0,0.1,0.1,0.1,0.2,0.2c0,0,0.1,0.1,0.2,0.2c0.1,0,0.1,0.1,0.2,0.2
				c0.1,0,0.1,0.1,0.2,0.1c0.1,0,0.1,0.1,0.2,0.1c0.1,0,0.2,0.1,0.2,0.1c0.1,0,0.2,0,0.2,0.1c0.1,0,0.2,0,0.2,0
				C40.8,46.5,40.8,46.5,40.9,46.5L40.9,46.5z"/>
		</g>
	</g>
	<rect x="90.2" y="3.3" class="st3" width="1.9" height="81.7"/>
</g>
</svg>
