<svg width="24" height="24" viewBox="0 0 24 24" fill="none" xmlns="http://www.w3.org/2000/svg">
<path d="M9.69292 16.5073C10.0834 16.8978 10.7166 16.8978 11.1071 16.5073C11.4977 16.1168 11.4977 15.4836 11.1071 15.0931L9.69292 16.5073ZM8.40002 13.8002L7.69292 13.0931C7.30239 13.4836 7.30239 14.1168 7.69292 14.5073L8.40002 13.8002ZM11.1071 12.5073C11.4977 12.1168 11.4977 11.4836 11.1071 11.0931C10.7166 10.7026 10.0834 10.7026 9.69292 11.0931L11.1071 12.5073ZM14.3071 11.0931C13.9166 10.7026 13.2834 10.7026 12.8929 11.0931C12.5024 11.4836 12.5024 12.1168 12.8929 12.5073L14.3071 11.0931ZM15.6 13.8002L16.3071 14.5073C16.6977 14.1168 16.6977 13.4836 16.3071 13.0931L15.6 13.8002ZM12.8929 15.0931C12.5024 15.4836 12.5024 16.1168 12.8929 16.5073C13.2834 16.8978 13.9166 16.8978 14.3071 16.5073L12.8929 15.0931ZM3.77145 5.2H9.25717V3.2H3.77145V5.2ZM9.6286 5.6V8H11.6286V5.6H9.6286ZM9.6286 8V8.2H11.6286V8H9.6286ZM9.25717 5.2C9.44296 5.2 9.6286 5.35954 9.6286 5.6H11.6286C11.6286 4.29405 10.5862 3.2 9.25717 3.2V5.2ZM3.77145 3.2C2.44241 3.2 1.40002 4.29405 1.40002 5.6H3.40002C3.40002 5.35954 3.58566 5.2 3.77145 5.2V3.2ZM2.40002 9H10.6286V7H2.40002V9ZM10.6286 9H20.2286V7H10.6286V9ZM20.6 9.4V18.4H22.6V9.4H20.6ZM20.2286 18.8H3.77145V20.8H20.2286V18.8ZM3.40002 18.4V8H1.40002V18.4H3.40002ZM3.77145 18.8C3.58566 18.8 3.40002 18.6404 3.40002 18.4H1.40002C1.40002 19.7059 2.44241 20.8 3.77145 20.8V18.8ZM20.6 18.4C20.6 18.6404 20.4144 18.8 20.2286 18.8V20.8C21.5576 20.8 22.6 19.7059 22.6 18.4H20.6ZM20.2286 9C20.4144 9 20.6 9.15954 20.6 9.4H22.6C22.6 8.09405 21.5576 7 20.2286 7V9ZM11.1071 15.0931L9.10713 13.0931L7.69292 14.5073L9.69292 16.5073L11.1071 15.0931ZM9.10713 14.5073L11.1071 12.5073L9.69292 11.0931L7.69292 13.0931L9.10713 14.5073ZM12.8929 12.5073L14.8929 14.5073L16.3071 13.0931L14.3071 11.0931L12.8929 12.5073ZM14.8929 13.0931L12.8929 15.0931L14.3071 16.5073L16.3071 14.5073L14.8929 13.0931ZM3.40002 8V5.6H1.40002V8H3.40002Z" fill="#777778"/>
</svg>
